<svg xmlns="http://www.w3.org/2000/svg" viewBox="0 0 58.38 55.69"><defs><style>.cls-1{fill:#efefef;}.cls-2{fill:#f79;}.cls-3{fill:#4d4d4d;}.cls-4{fill:#ffd9c7;}.cls-5{fill:#ef608f;}.cls-6{fill:#f2b9a7;}</style></defs><title>Call price</title><g id="Layer_2" data-name="Layer 2"><g id="Layer_1-2" data-name="Layer 1"><path class="cls-1" d="M1.3,34.72c-2.95-4.28-.49-12,3.57-18.5S14.61,4.52,20.85,2s13-2.36,20-1.15,14.18,3.43,16.3,8.5-.77,13-3,20.16S50.45,43.19,46.5,48.22s-10.33,8.62-15,7.12-7.6-8.1-13.25-11.81S4.24,39,1.3,34.72Z"/><path class="cls-2" d="M33.15,52C27.57,52,21,48.31,16,42.33,8.6,33.55,7,22.71,12.42,18.17a1,1,0,0,1,.67-.22c1.05,0,2.78,1.21,4.29,3,1.33,1.58,4.21,5.94,3.13,6.85a5.08,5.08,0,0,0-.62,7.13l4,4.82a5.09,5.09,0,0,0,7.14.62.68.68,0,0,1,.45-.15c1.27,0,4.2,2.58,5.75,4.42a11.92,11.92,0,0,1,2,3.15c.41,1.07.38,1.84-.07,2.22a9.17,9.17,0,0,1-6,2Z"/><path class="cls-3" d="M13.09,18.2c.95,0,2.61,1.15,4.1,2.92,1.8,2.15,3.9,5.87,3.16,6.5a5.32,5.32,0,0,0-.65,7.48l4,4.82a5.33,5.33,0,0,0,7.49.65.46.46,0,0,1,.29-.09c1.09,0,3.94,2.4,5.56,4.33,1.8,2.15,2.66,4.4,1.92,5h0a8.84,8.84,0,0,1-5.83,2c-5.3,0-11.87-3.51-17-9.61-7.29-8.69-8.89-19.35-3.57-23.81a.75.75,0,0,1,.5-.16m0-.5a1.23,1.23,0,0,0-.83.28c-2.71,2.27-3.81,6.1-3.11,10.77a28.66,28.66,0,0,0,6.63,13.74c5.07,6,11.72,9.79,17.37,9.79a9.41,9.41,0,0,0,6.16-2.07c.38-.32.71-1,.14-2.5a11.91,11.91,0,0,0-2-3.22C35.91,42.65,32.9,40,31.51,40a.89.89,0,0,0-.61.21,4.83,4.83,0,0,1-6.78-.59l-4-4.82A4.84,4.84,0,0,1,20.67,28c1.43-1.2-2.3-6.25-3.1-7.2-1.58-1.88-3.34-3.1-4.48-3.1Z"/><path class="cls-4" d="M40.83,41.91a.3.3,0,0,1-.15,0,.26.26,0,0,1-.1-.2V36.13a17.3,17.3,0,1,1,17.55-17.3c0,11.94-5.15,18.83-17.22,23.06Z"/><path class="cls-3" d="M40.83,1.78a17.06,17.06,0,0,1,17.05,17c0,11.59-5,18.59-17.05,22.83V35.88a17.05,17.05,0,1,1,0-34.1m0-.5a17.55,17.55,0,0,0-.5,35.1v5.28a.52.52,0,0,0,.21.41.48.48,0,0,0,.29.09.45.45,0,0,0,.16,0c12.19-4.27,17.39-11.24,17.39-23.3A17.58,17.58,0,0,0,40.83,1.28Z"/><path class="cls-3" d="M46,12.56H35.64v1.61h1.75c2.14,0,3.45.71,3.79,2.14H35.64v1.23h5.62c-.17,1.7-1.6,2.81-4.26,2.81H35.64v1.52c2.32,2.47,4.12,4.61,6,6.92H44c-2.07-2.53-4.16-5-6.08-7,3.15-.1,5.15-1.7,5.39-4.21H46V16.31H43.33A3.68,3.68,0,0,0,42,13.8H46Z"/><path class="cls-5" d="M18.24,42.17c-7.14-8.52-8.81-18.92-3.86-23.52-.78-.45-1.44-.59-1.79-.29-5.32,4.46-3.72,15.12,3.57,23.81,5.49,6.54,12.63,10.1,18.1,9.56C29.15,51.33,23.06,47.91,18.24,42.17Z"/><path class="cls-5" d="M32.73,41c-.69-.41-1.25-.6-1.51-.39a5.12,5.12,0,0,1-2.37,1.11A5.3,5.3,0,0,0,32.73,41Z"/><path class="cls-6" d="M42.91,40.87v-5a17,17,0,0,1-1-34c-.35,0-.69-.06-1-.06a17,17,0,1,0,0,34.1v5.78C41.55,41.41,42.24,41.14,42.91,40.87Z"/></g></g></svg>