<svg xmlns="http://www.w3.org/2000/svg" viewBox="0 0 64.23 58.55"><defs><style>.cls-1{fill:#efefef;}.cls-2{fill:#fff;}.cls-3{fill:#4d4d4d;}.cls-4{fill:#ccc;}.cls-5{fill:#f79;}.cls-6{fill:#f44c81;}.cls-7{fill:#ef608f;}.cls-8{fill:#e0447c;}.cls-9{fill:#e0e0e0;}.cls-10{fill:#aaa;}</style></defs><title>Location</title><g id="Layer_2" data-name="Layer 2"><g id="Layer_1-2" data-name="Layer 1"><path class="cls-1" d="M58.24,38.71c-3.19,7.19-6.19,15.73-12.05,18.63s-14.58.23-21.06-4.66-10.7-12-13.56-20.22S7.24,14.71,11.34,9.62s13.75-5.8,21.78-5.95,14.45.23,20,3,10.31,8,11,13.48S61.44,31.51,58.24,38.71Z"/><path class="cls-2" d="M3.62,44.18a.25.25,0,0,1-.25-.25V14.48A2.93,2.93,0,0,1,6.3,11.55H47.1A2.93,2.93,0,0,1,50,14.48V43.93a.25.25,0,0,1-.25.25Z"/><path class="cls-3" d="M47.1,11.8a2.69,2.69,0,0,1,2.68,2.68V43.93H3.62V14.48A2.69,2.69,0,0,1,6.3,11.8H47.1M3.62,43.93h0M47.1,11.3H6.3a3.18,3.18,0,0,0-3.18,3.18V43.93a.5.5,0,0,0,.5.5H49.78a.5.5,0,0,0,.5-.5V14.48A3.18,3.18,0,0,0,47.1,11.3Z"/><path class="cls-4" d="M7.8,40a.25.25,0,0,1-.25-.25V16a.25.25,0,0,1,.25-.25c6.3,0,12.6,0,18.9,0s12.6,0,18.9,0a.25.25,0,0,1,.25.25v23.7a.25.25,0,0,1-.25.25Z"/><path class="cls-3" d="M7.8,16c12.6,0,25.2.09,37.8.09v23.7H7.8V16m0-.5a.5.5,0,0,0-.5.5V39.76a.5.5,0,0,0,.5.5H45.6a.5.5,0,0,0,.5-.5V16.06a.5.5,0,0,0-.5-.5q-9.45,0-18.9,0c-6.3,0-12.6,0-18.9,0Z"/><path class="cls-5" d="M26.7,31.7a.29.29,0,0,1-.18-.07l-9.06-9.07A13,13,0,0,1,13.91,16a13.24,13.24,0,0,1-.19-4.26A13.07,13.07,0,0,1,35.94,4.08a12.89,12.89,0,0,1,3.74,7.69,13.24,13.24,0,0,1-.21,4.35,12.94,12.94,0,0,1-3.53,6.44l-9.06,9.07A.29.29,0,0,1,26.7,31.7Z"/><path class="cls-3" d="M26.7.5a12.82,12.82,0,0,1,9.07,21.88L26.7,31.45l-9.06-9.07A12.66,12.66,0,0,1,14.16,16,13,13,0,0,1,14,11.8,12.82,12.82,0,0,1,26.7.5m0-.5A13.32,13.32,0,0,0,13.47,11.74a13.46,13.46,0,0,0,.2,4.34,13.27,13.27,0,0,0,3.61,6.66l9.07,9.06a.48.48,0,0,0,.7,0l9.07-9.06a13.24,13.24,0,0,0,3.59-6.57,13.46,13.46,0,0,0,.22-4.43A13.32,13.32,0,0,0,26.7,0Z"/><path class="cls-6" d="M26.7,21.28A7.87,7.87,0,0,1,21.07,19a8,8,0,0,1,0-11.26A8,8,0,0,1,32.33,19,7.87,7.87,0,0,1,26.7,21.28Z"/><path class="cls-3" d="M26.7,5.6a7.72,7.72,0,1,1-5.46,2.26A7.74,7.74,0,0,1,26.7,5.6m0-.5a8.22,8.22,0,1,0,5.81,2.41A8.18,8.18,0,0,0,26.7,5.1Z"/><path class="cls-7" d="M19.64,22.38A12.66,12.66,0,0,1,16.16,16,13,13,0,0,1,16,11.8,12.8,12.8,0,0,1,27.7.55,12.8,12.8,0,0,0,14,11.8,13,13,0,0,0,14.16,16a12.66,12.66,0,0,0,3.48,6.41l9.06,9.07,1-1Z"/><path class="cls-8" d="M23.24,18.77A7.7,7.7,0,0,1,27.7,5.68,7.71,7.71,0,1,0,27.7,21,7.65,7.65,0,0,1,23.24,18.77Z"/><path class="cls-9" d="M8.3,11.8h-2a2.69,2.69,0,0,0-2.68,2.68V43.93h2V14.48A2.69,2.69,0,0,1,8.3,11.8Z"/><path class="cls-4" d="M3.44,50.75a.25.25,0,0,1-.2-.1L.3,46.72a.25.25,0,0,1,0-.15V43.93a.25.25,0,0,1,.25-.25H52.9a.25.25,0,0,1,.25.25v2.64a.25.25,0,0,1,0,.15l-2.94,3.93a.25.25,0,0,1-.2.1Z"/><path class="cls-3" d="M52.9,43.93v2.64L50,50.5H3.44L.5,46.57V43.93H52.9m0-.5H.5a.5.5,0,0,0-.5.5v2.64a.45.45,0,0,0,.1.3L3,50.8a.48.48,0,0,0,.4.2H50a.48.48,0,0,0,.4-.2l2.94-3.93a.45.45,0,0,0,.1-.3V43.93a.5.5,0,0,0-.5-.5Z"/><polygon class="cls-10" points="2.5 43.93 0.5 43.93 0.5 46.58 3.44 50.5 5.44 50.5 2.5 46.58 2.5 43.93"/><path class="cls-10" d="M7.8,16V39.76h2V16Z"/></g></g></svg>