<svg xmlns="http://www.w3.org/2000/svg" viewBox="0 0 58.06 52.24"><defs><style>.cls-1{fill:#efefef;}.cls-2{fill:#ccc;}.cls-3{fill:#4d4d4d;}.cls-4{fill:#f44c81;}.cls-5{fill:#aaa;}.cls-6{fill:#fff;}.cls-7{fill:#e0e0e0;}</style></defs><title>Mobile Rating</title><g id="Layer_2" data-name="Layer 2"><g id="Layer_1-2" data-name="Layer 1"><path class="cls-1" d="M58,23.75c.48,6.22-3.6,14.52-10.59,20.4S30.5,53.48,23.54,51.82,12.56,43.43,8.21,37-.91,24.59.15,17.83,8,3.62,14.84,2.08s13.6,2.84,19.05,5S43.44,9.25,48,11.32,57.56,17.54,58,23.75Z"/><rect class="cls-2" x="10.56" y="0.25" width="28.3" height="50.5" rx="4.84" ry="4.84"/><path class="cls-3" d="M34,.5a4.6,4.6,0,0,1,4.59,4.59V45.91A4.6,4.6,0,0,1,34,50.5H15.4a4.61,4.61,0,0,1-4.59-4.59V5.09A4.61,4.61,0,0,1,15.4.5H34M34,0H15.4a5.09,5.09,0,0,0-5.09,5.09V45.91A5.09,5.09,0,0,0,15.4,51H34a5.09,5.09,0,0,0,5.09-5.09V5.09A5.09,5.09,0,0,0,34,0Z"/><rect class="cls-3" x="20.51" y="3.12" width="8.39" height="1.04" rx="0.5" ry="0.5"/><path class="cls-4" d="M24.71,49.17a1.82,1.82,0,1,1,1.81-1.81A1.82,1.82,0,0,1,24.71,49.17Z"/><path class="cls-3" d="M24.71,45.79a1.57,1.57,0,1,1-1.56,1.57,1.56,1.56,0,0,1,1.56-1.57m0-.5a2.07,2.07,0,1,0,2.06,2.07,2.07,2.07,0,0,0-2.06-2.07Z"/><path class="cls-5" d="M12.89,45.91V5.09A4.61,4.61,0,0,1,17.48.5H15.4a4.61,4.61,0,0,0-4.59,4.59V45.91A4.61,4.61,0,0,0,15.4,50.5h2.08A4.61,4.61,0,0,1,12.89,45.91Z"/><rect class="cls-6" x="10.56" y="7.29" width="28.3" height="36.43" rx="0.25" ry="0.25"/><path class="cls-3" d="M38.61,7.53V43.46H10.81V7.53h27.8m0-.5H10.81a.5.5,0,0,0-.5.5V43.46a.5.5,0,0,0,.5.5h27.8a.5.5,0,0,0,.5-.5V7.53a.5.5,0,0,0-.5-.5Z"/><path class="cls-4" d="M30.19,29.49h-.1l-5.38-2.23-5.38,2.23h-.1a.23.23,0,0,1-.14,0,.28.28,0,0,1-.11-.22l.45-5.81L15.66,19a.24.24,0,0,1-.05-.24.26.26,0,0,1,.18-.17l5.66-1.36,3.05-5a.24.24,0,0,1,.21-.11h0a.24.24,0,0,1,.21.11l3,5,5.66,1.36a.26.26,0,0,1,.18.17.24.24,0,0,1-.05.24L30,23.42l.45,5.81a.27.27,0,0,1-.1.22A.28.28,0,0,1,30.19,29.49Z"/><path class="cls-3" d="M24.71,12.39l3.1,5.05,5.76,1.39-3.84,4.51.46,5.9L24.71,27l-5.48,2.26.46-5.9-3.84-4.51,5.76-1.39,3.1-5.05m0-.5a.54.54,0,0,0-.43.23l-3,4.88-5.56,1.34a.52.52,0,0,0-.36.33.49.49,0,0,0,.1.48l3.71,4.35-.45,5.71a.51.51,0,0,0,.21.44.52.52,0,0,0,.29.09.58.58,0,0,0,.19,0l5.29-2.19L30,29.71a.58.58,0,0,0,.19,0,.5.5,0,0,0,.29-.09.51.51,0,0,0,.21-.44l-.45-5.71L34,19.15a.49.49,0,0,0,.1-.48.5.5,0,0,0-.36-.33L28.13,17l-3-4.88a.52.52,0,0,0-.43-.23Z"/><rect class="cls-3" x="15.86" y="33.83" width="17.69" height="1.04" rx="0.5" ry="0.5"/><rect class="cls-3" x="15.86" y="37.99" width="17.69" height="1.04" rx="0.5" ry="0.5"/><rect class="cls-7" x="10.81" y="7.53" width="2.08" height="35.93"/></g></g></svg>