<svg xmlns="http://www.w3.org/2000/svg" viewBox="0 0 81.69 66.59"><defs><style>.cls-1{fill:#efefef;}.cls-2{fill:#fff;}.cls-3{fill:#4d4d4d;}.cls-4{fill:#ccc;}.cls-5{fill:#e0e0e0;}.cls-6{fill:#aaa;}.cls-7{fill:#f44c81;}.cls-8{fill:#f79;}.cls-9{fill:#ef608f;}</style></defs><title>Offer</title><g id="Layer_2" data-name="Layer 2"><g id="Layer_1-2" data-name="Layer 1"><path class="cls-1" d="M37.23.31c8.59-1.76,18.89,4.26,28.41,12.27s18.19,18,15.57,25.51S64.68,50.53,55.45,55.53s-13.8,10.06-19.2,10.92S24.61,64,17,59.33.6,48.68,0,42.08,7.22,28.29,14.51,19.94,28.64,2.06,37.23.31Z"/><path class="cls-2" d="M10.29,52.42a.24.24,0,0,1-.18-.07.29.29,0,0,1-.07-.18V17.47a3.41,3.41,0,0,1,3.4-3.4H61.51a3.41,3.41,0,0,1,3.4,3.4v34.7a.25.25,0,0,1-.25.25Z"/><path class="cls-3" d="M61.51,14.32a3.16,3.16,0,0,1,3.15,3.15v34.7H10.29V17.47a3.16,3.16,0,0,1,3.15-3.15H61.51M10.29,52.17h0M61.51,13.82H13.44a3.66,3.66,0,0,0-3.65,3.65v34.7a.5.5,0,0,0,.5.5H64.66a.5.5,0,0,0,.5-.5V17.47a3.66,3.66,0,0,0-3.65-3.65Z"/><path class="cls-4" d="M15.21,47.51a.25.25,0,0,1-.25-.25v-28a.25.25,0,0,1,.25-.25c7.42,0,14.84,0,22.27.05s14.84.06,22.26.06a.25.25,0,0,1,.25.25V47.26a.25.25,0,0,1-.25.25Z"/><path class="cls-3" d="M15.21,19.24c14.84,0,29.69.11,44.53.11V47.26H15.21v-28m0-.5a.5.5,0,0,0-.5.5v28a.5.5,0,0,0,.5.5H59.74a.5.5,0,0,0,.5-.5V19.35a.5.5,0,0,0-.5-.5c-7.42,0-15,0-22.26-.06s-14.85-.05-22.27-.05Z"/><path class="cls-5" d="M15.8,14.32H13.44a3.16,3.16,0,0,0-3.15,3.15v34.7h2.36V17.47A3.16,3.16,0,0,1,15.8,14.32Z"/><path class="cls-6" d="M15.21,19.24v28h2.35v-28Z"/><rect class="cls-7" x="23.61" y="25.06" width="3.87" height="28.81" rx="0.25" ry="0.25"/><path class="cls-3" d="M27.22,25.31V53.62H23.86V25.31h3.36m0-.5H23.86a.5.5,0,0,0-.5.5V53.62a.5.5,0,0,0,.5.5h3.36a.5.5,0,0,0,.5-.5V25.31a.5.5,0,0,0-.5-.5Z"/><rect class="cls-7" x="47.48" y="25.06" width="3.87" height="28.81" rx="0.25" ry="0.25"/><path class="cls-3" d="M51.09,25.31V53.62H47.73V25.31h3.36m0-.5H47.73a.5.5,0,0,0-.5.5V53.62a.5.5,0,0,0,.5.5h3.36a.5.5,0,0,0,.5-.5V25.31a.5.5,0,0,0-.5-.5Z"/><rect class="cls-8" x="18.22" y="9.66" width="38.52" height="18.9" rx="1.94" ry="1.94"/><path class="cls-3" d="M54.79,9.91a1.7,1.7,0,0,1,1.69,1.7v15a1.69,1.69,0,0,1-1.69,1.69H20.16a1.69,1.69,0,0,1-1.69-1.69v-15a1.7,1.7,0,0,1,1.69-1.7H54.79m0-.5H20.16A2.2,2.2,0,0,0,18,11.61v15a2.19,2.19,0,0,0,2.19,2.19H54.79A2.19,2.19,0,0,0,57,26.62v-15a2.2,2.2,0,0,0-2.19-2.2Z"/><path class="cls-3" d="M26.54,15.69a2.69,2.69,0,0,0-1.8-.56,2.66,2.66,0,0,0-1.79.56,2.41,2.41,0,0,0-.73,1.91v3A2.41,2.41,0,0,0,23,22.49a2.66,2.66,0,0,0,1.79.56,2.69,2.69,0,0,0,1.8-.56,2.41,2.41,0,0,0,.73-1.91v-3A2.41,2.41,0,0,0,26.54,15.69Zm-1.8,6.11c-.73,0-1.1-.41-1.1-1.22v-3c0-.81.37-1.22,1.1-1.22s1.11.42,1.11,1.22v3C25.85,21.38,25.47,21.8,24.74,21.8Z"/><path class="cls-3" d="M33.43,15.13H29.69c-.42,0-.62.24-.62.46v6.94c0,.22.22.46.71.46s.71-.16.71-.46V19.61h1.62c.31,0,.45-.28.45-.55s-.14-.57-.45-.57H30.49V16.38h2.94c.26,0,.44-.26.44-.63S33.74,15.13,33.43,15.13Z"/><path class="cls-3" d="M39.51,15.13H35.77c-.43,0-.62.24-.62.46v6.94c0,.22.22.46.71.46s.71-.16.71-.46V19.61h1.62c.31,0,.45-.28.45-.55s-.14-.57-.45-.57H36.57V16.38h2.94c.26,0,.44-.26.44-.63S39.81,15.13,39.51,15.13Z"/><path class="cls-3" d="M45.66,16.38c.27,0,.46-.26.46-.63s-.15-.62-.46-.62H41.85c-.43,0-.62.24-.62.46v6.94c0,.22.19.46.62.46h3.81c.31,0,.46-.32.46-.62s-.19-.63-.46-.63h-3V19.61h1.61c.3,0,.45-.27.45-.55s-.15-.57-.45-.57H42.65V16.38Z"/><path class="cls-3" d="M52.67,22.12l-1.39-2.59a2,2,0,0,0,1.4-2.15,2.09,2.09,0,0,0-.75-1.76,3,3,0,0,0-1.81-.49H48a.45.45,0,0,0-.47.45v7c0,.3.36.46.71.46s.71-.24.71-.46V19.75h.88l1.51,2.95a.57.57,0,0,0,.5.34.92.92,0,0,0,.88-.74A.31.31,0,0,0,52.67,22.12Zm-1.42-4.61c0,.77-.35,1.12-1.13,1.12H49V16.38h1.16A1,1,0,0,1,51.25,17.51Z"/><path class="cls-9" d="M20.82,26.62v-15a1.7,1.7,0,0,1,1.7-1.7H20.16a1.7,1.7,0,0,0-1.69,1.7v15a1.69,1.69,0,0,0,1.69,1.69h2.36A1.7,1.7,0,0,1,20.82,26.62Z"/><path class="cls-4" d="M10.07,60.16a.23.23,0,0,1-.2-.1L6.41,55.44a.27.27,0,0,1,0-.15V52.17a.25.25,0,0,1,.25-.25H68.34a.25.25,0,0,1,.25.25v3.12a.27.27,0,0,1,0,.15l-3.46,4.62a.23.23,0,0,1-.2.1Z"/><path class="cls-3" d="M68.34,52.17v3.12l-3.46,4.62H10.07L6.61,55.29V52.17H68.34m0-.5H6.61a.5.5,0,0,0-.5.5v3.12a.54.54,0,0,0,.1.3l3.46,4.62a.48.48,0,0,0,.4.2H64.88a.48.48,0,0,0,.4-.2l3.46-4.62a.54.54,0,0,0,.1-.3V52.17a.5.5,0,0,0-.5-.5Z"/><polygon class="cls-6" points="8.97 52.17 6.61 52.17 6.61 55.29 10.07 59.91 12.43 59.91 8.97 55.29 8.97 52.17"/></g></g></svg>