<svg xmlns="http://www.w3.org/2000/svg" viewBox="0 0 73.24 70.18"><defs><style>.cls-1{fill:#efefef;}.cls-2{fill:#ccc;}.cls-3{fill:#4d4d4d;}.cls-4{fill:#fff;}.cls-5{fill:#f79;}.cls-6{fill:#f44c81;}.cls-7{fill:#e0e0e0;}.cls-8{fill:#aaa;}.cls-9{fill:#ef608f;}</style></defs><title>Wallet</title><g id="Layer_2" data-name="Layer 2"><g id="Layer_1-2" data-name="Layer 1"><path class="cls-1" d="M72.9,36.17c1.56,8.5-2.23,19.11-10,26s-19.6,10-28.51,6.69S19.42,55.78,13,46.42-.26,28.16,0,19.17,7.6,1.13,15.83.11,33.19,6.06,40.31,9.85s12.2,4.4,18.19,7.92S71.36,27.68,72.9,36.17Z"/><path class="cls-2" d="M53.13,15.57H8.61a4.6,4.6,0,0,0,0,9.2H53.13a4.6,4.6,0,0,1,4.6,4.6v-9.2A4.6,4.6,0,0,0,53.13,15.57Z"/><path class="cls-3" d="M57.73,29.62a.25.25,0,0,1-.25-.25A4.35,4.35,0,0,0,53.13,25H8.61a4.85,4.85,0,0,1,0-9.7H53.13A4.85,4.85,0,0,1,58,20.17v9.2A.25.25,0,0,1,57.73,29.62ZM8.61,15.82a4.35,4.35,0,0,0,0,8.7H53.13a4.84,4.84,0,0,1,4.35,2.71V20.17a4.35,4.35,0,0,0-4.35-4.35Z"/><path class="cls-4" d="M57.73,57a4.6,4.6,0,0,1-4.6,4.6H8.61A4.6,4.6,0,0,1,4,57H4V20.17a4.6,4.6,0,0,0,4.6,4.6H53.13a4.6,4.6,0,0,1,4.6,4.6Z"/><path class="cls-3" d="M53.13,61.83H8.61A4.86,4.86,0,0,1,3.76,57V20.17a.25.25,0,0,1,.5,0,4.35,4.35,0,0,0,4.35,4.35H53.13A4.86,4.86,0,0,1,58,29.37V57A4.86,4.86,0,0,1,53.13,61.83ZM4.26,57v0a4.36,4.36,0,0,0,4.35,4.35H53.13A4.35,4.35,0,0,0,57.48,57V29.37A4.35,4.35,0,0,0,53.13,25H8.61a4.85,4.85,0,0,1-4.35-2.71Z"/><path class="cls-5" d="M57.72,34.55v13.8a1.67,1.67,0,0,1-1.6,1.73H46a1.85,1.85,0,0,1-1.56-.87l-3.12-5.07a1.82,1.82,0,0,1,0-1.93l3.15-5.1a1.75,1.75,0,0,1,1.49-.84h10.2A1.67,1.67,0,0,0,57.72,34.55Z"/><path class="cls-3" d="M56.12,50.33H46a2.07,2.07,0,0,1-1.77-1l-3.13-5.07a2.1,2.1,0,0,1,0-2.19L44.21,37a2,2,0,0,1,1.71-1h10.2a1.42,1.42,0,0,0,1.35-1.47.25.25,0,0,1,.5,0v13.8A1.92,1.92,0,0,1,56.12,50.33ZM45.92,36.52a1.52,1.52,0,0,0-1.28.72l-3.15,5.1a1.56,1.56,0,0,0,0,1.66l3.13,5.08a1.59,1.59,0,0,0,1.34.75H56.12a1.43,1.43,0,0,0,1.35-1.48V35.9a1.81,1.81,0,0,1-1.35.62Z"/><path class="cls-6" d="M48.73,40.87a2.3,2.3,0,1,1-2.3,2.3A2.3,2.3,0,0,1,48.73,40.87Z"/><path class="cls-3" d="M48.73,45.73a2.56,2.56,0,1,1,2.55-2.56A2.56,2.56,0,0,1,48.73,45.73Zm0-4.61a2.06,2.06,0,1,0,2.05,2.05A2.05,2.05,0,0,0,48.73,41.12Z"/><path class="cls-7" d="M6,57H6V24a4.59,4.59,0,0,1-2-3.79V57H4a4.6,4.6,0,0,0,4.6,4.6h2A4.6,4.6,0,0,1,6,57Z"/><path class="cls-3" d="M53.13,61.83H8.61A4.86,4.86,0,0,1,3.76,57V20.17a.25.25,0,0,1,.5,0,4.35,4.35,0,0,0,4.35,4.35H53.13A4.86,4.86,0,0,1,58,29.37V57A4.86,4.86,0,0,1,53.13,61.83ZM4.26,57v0a4.36,4.36,0,0,0,4.35,4.35H53.13A4.35,4.35,0,0,0,57.48,57V29.37A4.35,4.35,0,0,0,53.13,25H8.61a4.85,4.85,0,0,1-4.35-2.71Z"/><path class="cls-8" d="M6,20.17a4.6,4.6,0,0,1,4.6-4.6h-2a4.6,4.6,0,0,0,0,9.2h2A4.6,4.6,0,0,1,6,20.17Z"/><path class="cls-3" d="M57.73,29.62a.25.25,0,0,1-.25-.25A4.35,4.35,0,0,0,53.13,25H8.61a4.85,4.85,0,0,1,0-9.7H53.13A4.85,4.85,0,0,1,58,20.17v9.2A.25.25,0,0,1,57.73,29.62ZM8.61,15.82a4.35,4.35,0,0,0,0,8.7H53.13a4.84,4.84,0,0,1,4.35,2.71V20.17a4.35,4.35,0,0,0-4.35-4.35Z"/><path class="cls-5" d="M45.42,20.17H10.91l1.15-4.6.53-2.09a2.49,2.49,0,0,1,3.11-1.8l13.62,3.89Z"/><path class="cls-3" d="M45.42,20.42H10.91a.26.26,0,0,1-.19-.1.23.23,0,0,1-.05-.21l1.68-6.7a2.74,2.74,0,0,1,3.42-2l29.72,8.49a.24.24,0,0,1,.18.27A.25.25,0,0,1,45.42,20.42Zm-34.19-.5H43.64l-28-8a2.24,2.24,0,0,0-2.8,1.62Z"/><path class="cls-9" d="M14.59,13.48a2.48,2.48,0,0,1,1.47-1.7l-.36-.1a2.49,2.49,0,0,0-3.11,1.8l-.53,2.09-1.15,4.6h2l1.15-4.6Z"/><path class="cls-3" d="M45.42,20.42H10.91a.26.26,0,0,1-.19-.1.23.23,0,0,1-.05-.21l1.68-6.7a2.74,2.74,0,0,1,3.42-2l29.72,8.49a.24.24,0,0,1,.18.27A.25.25,0,0,1,45.42,20.42Zm-34.19-.5H43.64l-28-8a2.24,2.24,0,0,0-2.8,1.62Z"/><path class="cls-9" d="M46.4,49.21l-3.12-5.07a1.82,1.82,0,0,1,0-1.93l3.15-5.1a1.75,1.75,0,0,1,1.49-.84h-2a1.75,1.75,0,0,0-1.49.84l-3.15,5.1a1.82,1.82,0,0,0,0,1.93l3.12,5.07a1.85,1.85,0,0,0,1.56.87h2A1.85,1.85,0,0,1,46.4,49.21Z"/><path class="cls-9" d="M57.72,36.27V34.55a1.67,1.67,0,0,1-1.6,1.72h1.6Z"/><path class="cls-3" d="M56.12,50.33H46a2.07,2.07,0,0,1-1.77-1l-3.13-5.07a2.1,2.1,0,0,1,0-2.19L44.21,37a2,2,0,0,1,1.71-1h10.2a1.42,1.42,0,0,0,1.35-1.47.25.25,0,0,1,.5,0v13.8A1.92,1.92,0,0,1,56.12,50.33ZM45.92,36.52a1.52,1.52,0,0,0-1.28.72l-3.15,5.1a1.56,1.56,0,0,0,0,1.66l3.13,5.08a1.59,1.59,0,0,0,1.34.75H56.12a1.43,1.43,0,0,0,1.35-1.48V35.9a1.81,1.81,0,0,1-1.35.62Z"/></g></g></svg>